<?xml version="1.0" standalone="no"?><!DOCTYPE svg PUBLIC "-//W3C//DTD SVG 1.1//EN" "http://www.w3.org/Graphics/SVG/1.1/DTD/svg11.dtd"><svg t="1689499024942" class="icon" viewBox="0 0 1024 1024" version="1.1" xmlns="http://www.w3.org/2000/svg" p-id="5480" width="75" height="75" xmlns:xlink="http://www.w3.org/1999/xlink"><path d="M885.333333 140.181333H746.666667v-42.666666c0-17.066667-14.933333-32-32-32s-32 14.933333-32 32v42.666666H341.333333v-42.666666c0-17.066667-14.933333-32-32-32s-32 14.933333-32 32v42.666666H138.666667c-40.533333 0-74.666667 34.133333-74.666667 74.666667v650.666667c0 40.533333 34.133333 74.666667 74.666667 74.666666h746.666666c40.533333 0 74.666667-34.133333 74.666667-74.666666v-650.666667c0-40.533333-34.133333-74.666667-74.666667-74.666667z m-746.666666 64H277.333333v64c0 17.066667 14.933333 32 32 32s32-14.933333 32-32v-64h341.333334v64c0 17.066667 14.933333 32 32 32s32-14.933333 32-32v-64h138.666666c6.4 0 10.666667 4.266667 10.666667 10.666667v194.133333c-4.266667-2.133333-6.4-2.133333-10.666667-2.133333h-746.666666c-4.266667 0-6.4 0-10.666667 2.133333v-194.133333c0-6.4 4.266667-10.666667 10.666667-10.666667z m0 672c-6.4 0-10.666667-4.266667-10.666667-10.666666v-396.8c4.266667 2.133333 6.4 2.133333 10.666667 2.133333h746.666666c4.266667 0 6.4 0 10.666667-2.133333v396.8c0 6.4-4.266667 10.666667-10.666667 10.666666h-746.666666z m213.333333-256h-85.333333c-17.066667 0-32 14.933333-32 32s14.933333 32 32 32h85.333333c17.066667 0 32-14.933333 32-32s-14.933333-32-32-32z m405.333333 0h-192c-17.066667 0-32 14.933333-32 32s14.933333 32 32 32h192c17.066667 0 32-14.933333 32-32s-14.933333-32-32-32z" fill="#8A8A8A" p-id="5481"></path></svg>