<?xml version="1.0" standalone="no"?><!DOCTYPE svg PUBLIC "-//W3C//DTD SVG 1.1//EN" "http://www.w3.org/Graphics/SVG/1.1/DTD/svg11.dtd"><svg t="1689498730367" class="icon" viewBox="0 0 1024 1024" version="1.1" xmlns="http://www.w3.org/2000/svg" p-id="3368" id="mx_n_1689498730368" width="75" height="75" data-spm-anchor-id="a313x.7781069.0.i11" xmlns:xlink="http://www.w3.org/1999/xlink"><path d="M510.8 67C265.5 67 66 266.5 66 511.8s199.5 444.8 444.8 444.8c245.2 0 444.8-199.5 444.8-444.8S756 67 510.8 67z m0 823.9c-209.1 0-379.1-170.1-379.1-379.1s170.1-379.1 379.1-379.1 379.1 170.1 379.1 379.1-170.1 379.1-379.1 379.1z" fill="#d81e06" p-id="3369"></path><path d="M646.7 321.8l-1.6 0.4-200.5 73.2c-17.1 5-31.2 17.4-38.4 33.7L305.3 617.7l-1.6 3.5c-8.3 21.2-4.2 44.9 10.9 62 11.6 13.2 28.1 20.5 45.2 20.5 5 0 10-0.6 14.9-1.9l1.7-0.4L584.1 624c17.5-5.1 31.7-17.8 38.8-34.6l93.8-184.6 1.4-3.2c8-21.2 3.6-44.8-11.5-61.6-15-16.8-38-23.8-59.9-18.2z m-83.4 240l-191.9 71.3 93.9-175.4 185.2-67.6-87.2 171.7z" fill="#d81e06" p-id="3370" data-spm-anchor-id="a313x.7781069.0.i10" class=""></path></svg>